<?xml version="1.0" encoding="UTF-8"?>
<svg id="Layer_2" data-name="Layer 2" xmlns="http://www.w3.org/2000/svg" viewBox="0 0 386.5 47.82">
  <defs>
    <style>
      .cls-1 {
        stroke-linejoin: round;
      }

      .cls-1, .cls-2 {
        fill: none;
        stroke: #000;
        stroke-linecap: round;
        stroke-width: 3px;
      }

      .cls-2 {
        stroke-miterlimit: 10;
      }
    </style>
  </defs>
  <g id="Layer_2-2" data-name="Layer 2">
    <path class="cls-2" d="m4.39,42.28c-12.45-3.75,18.95-27.17,24.86-23.61.29.17.49.47.64.74,5.73,10.6-14.06,24.16-25.5,22.88Z"/>
    <path class="cls-1" d="m385,32.57s-3.88,7.77-17.48,5.83c-8.84-1.26-14.39-5.81-17.2-8.83-1.4-1.51-1.54-3.8-.37-5.5l15.62-22.56-1.94,3.88c-1.69,3.37-15.07,19.9-18.58,24.21-.56.69-1.31,1.19-2.17,1.44-4.08,1.18-16.15,4.11-16.15-2.35,0-7.77,15.54-9.71,15.54-9.71,0,0-13.59,3.88-23.3,3.88s-9.71,5.83-19.42,11.65c-9.71,5.83-10.96-2.27-9.96-6.27,2.47-9.89,6.07-9.26,4.13-11.2s-21.13,2.2-29.13,3.88-5.83,11.65-7.77,13.59,1.94-7.77-1.94-9.71-23.3,11.65-29.13,13.59c-5.83,1.94-3.88-5.83-5.83-9.71s-4.15,1.43-15.54,7.77c-6.8,3.78-8.8,1.25-8.8-1.22,0-2,1.08-3.08,2-4l10.69-12.26c3.88-3.88-9.71,1.94-15.54,3.88-5.83,1.94-17.48,7.77-25.24,11.65-7.77,3.88-5.83-1.94-5.83-1.94,0,0,1.94-3.88,1.94-9.71s-7.77-1.94-7.77-1.94l-27.19,13.59s-1.94,1.94-1.94-5.83-5.83-3.88-5.83-3.88c0,0-3.88,1.94-13.59,7.77s-9.71,1.94-9.71,1.94c0,0,0-5.83,0-11.65s-8.07-.94-9.5-.12c-.14.08-.27.16-.4.26l-14.29,10.39c-3.25,2.36-7.72-.47-6.95-4.41.02-.1.04-.19.06-.29,1.75-8.73-4.36-6.47-5.61-5.93-.14.06-.26.13-.39.23-1.7,1.29-15.84,12-23.13,19.29-7.77,7.77-7.77,1.94-7.77,1.94l1.94-21.36"/>
  </g>
</svg>