<?xml version="1.0" encoding="UTF-8"?>
<svg id="Layer_2" data-name="Layer 2" xmlns="http://www.w3.org/2000/svg" viewBox="0 0 460.37 69.32">
  <g id="Layer_1-2" data-name="Layer 1">
    <g>
      <path d="m27.28,38.18c0-1.29-.52-2.32-1.55-3.09-1.03-.77-3.07-1.6-6.11-2.47l-3.48-1.08c-4.12-1.18-7.37-3-9.74-5.45-2.37-2.45-3.56-5.6-3.56-9.47,0-3.25.81-6.12,2.43-8.62,1.62-2.5,3.89-4.46,6.8-5.87,2.91-1.42,6.3-2.12,10.16-2.12,3.66,0,7.15.59,10.47,1.78,3.32,1.19,6.07,2.83,8.23,4.95l-6.88,9.35c-3.45-2.99-7.21-4.48-11.28-4.48s-5.8,1.26-5.8,3.79c0,1.13.5,2.05,1.51,2.74,1,.7,2.92,1.48,5.76,2.36l3.25,1c4.69,1.44,8.24,3.47,10.67,6.07,2.42,2.6,3.63,5.89,3.63,9.85,0,3.35-.88,6.27-2.63,8.77-1.75,2.5-4.21,4.43-7.38,5.8s-6.89,2.05-11.17,2.05c-3.97,0-7.72-.63-11.24-1.89-3.53-1.26-6.66-3.08-9.39-5.45l6.41-9.97c4.74,3.81,9.53,5.72,14.38,5.72,4.33,0,6.49-1.42,6.49-4.25Z" style="fill: #7a6b3f; stroke-width: 0px;"/>
      <path d="m48.77,1.24h21.79c5.87,0,10.48,1.52,13.83,4.56,3.35,3.04,5.02,7.21,5.02,12.52,0,3.56-.76,6.65-2.28,9.27-1.52,2.63-3.68,4.66-6.49,6.11-2.81,1.44-6.12,2.16-9.93,2.16h-7.88v16.92h-14.07V1.24Zm26.66,17.31c0-2.01-.59-3.55-1.78-4.64-1.19-1.08-2.91-1.62-5.18-1.62h-5.64v12.52h5.64c2.27,0,3.99-.54,5.18-1.62,1.18-1.08,1.78-2.63,1.78-4.64Z" style="fill: #7a6b3f; stroke-width: 0px;"/>
      <path d="m120.64,38.18c0-1.29-.52-2.32-1.55-3.09-1.03-.77-3.07-1.6-6.11-2.47l-3.48-1.08c-4.12-1.18-7.37-3-9.74-5.45-2.37-2.45-3.56-5.6-3.56-9.47,0-3.25.81-6.12,2.43-8.62,1.62-2.5,3.89-4.46,6.8-5.87,2.91-1.42,6.3-2.12,10.16-2.12,3.66,0,7.15.59,10.47,1.78,3.32,1.19,6.07,2.83,8.23,4.95l-6.88,9.35c-3.45-2.99-7.21-4.48-11.28-4.48s-5.8,1.26-5.8,3.79c0,1.13.5,2.05,1.51,2.74,1,.7,2.92,1.48,5.76,2.36l3.25,1c4.69,1.44,8.24,3.47,10.67,6.07,2.42,2.6,3.63,5.89,3.63,9.85,0,3.35-.88,6.27-2.63,8.77-1.75,2.5-4.21,4.43-7.38,5.8s-6.89,2.05-11.17,2.05c-3.97,0-7.72-.63-11.24-1.89-3.53-1.26-6.66-3.08-9.39-5.45l6.41-9.97c4.74,3.81,9.53,5.72,14.38,5.72,4.33,0,6.49-1.42,6.49-4.25Z" style="fill: #7a6b3f; stroke-width: 0px;"/>
      <path d="m184.09,38.72c0-2.27-.8-4.1-2.4-5.49-1.6-1.39-4.17-2.52-7.73-3.4l-2.71-.7c-4.84-1.18-8.44-2.94-10.78-5.26-2.34-2.32-3.52-5.31-3.52-8.96,0-2.99.72-5.6,2.16-7.84,1.44-2.24,3.48-3.98,6.1-5.22,2.63-1.24,5.72-1.85,9.27-1.85s6.67.62,9.51,1.85c2.83,1.24,5.15,2.99,6.96,5.25l-5.02,5.26c-2.99-3.4-6.9-5.1-11.75-5.1-2.73,0-4.9.62-6.49,1.85-1.6,1.24-2.4,2.94-2.4,5.1,0,1.91.72,3.45,2.16,4.64,1.44,1.19,3.92,2.22,7.42,3.09l2.71.7c9.89,2.58,14.84,7.78,14.84,15.61,0,3.14-.77,5.9-2.32,8.27-1.55,2.37-3.72,4.21-6.53,5.53-2.81,1.31-6.07,1.97-9.78,1.97s-7.38-.75-10.7-2.24c-3.32-1.49-6.2-3.63-8.62-6.41l5.18-5.41c4.17,4.53,8.89,6.8,14.14,6.8,3.19,0,5.71-.72,7.54-2.16,1.83-1.44,2.74-3.4,2.74-5.87Z" style="stroke-width: 0px;"/>
      <path d="m200.55,2.55h8.5v8.04h-8.5V2.55Zm.31,14.3h7.81v35.94h-7.81V16.85Z" style="stroke-width: 0px;"/>
      <path d="m218.01,1.24h7.81v51.55h-7.81V1.24Z" style="stroke-width: 0px;"/>
      <path d="m242.98,52.78h-7.81V1.24h7.81v30.06l14.68-14.45h9.04l-13.68,13.29,15.61,22.64h-9.12l-11.75-17.62-4.79,4.64v12.98Z" style="stroke-width: 0px;"/>
      <path d="m269.25,34.85c0-3.71.77-7.01,2.32-9.89,1.54-2.88,3.67-5.15,6.38-6.8,2.7-1.65,5.81-2.47,9.31-2.47s6.66.84,9.31,2.51c2.65,1.67,4.73,4.02,6.22,7.03,1.49,3.01,2.24,6.51,2.24,10.47v1.47h-27.98c.31,3.14,1.51,5.62,3.59,7.42,2.09,1.8,4.86,2.71,8.31,2.71,4.17,0,7.91-1.44,11.21-4.33l3.86,4.87c-1.85,1.91-4.15,3.39-6.88,4.44-2.73,1.05-5.62,1.58-8.66,1.58-3.81,0-7.16-.8-10.05-2.4-2.89-1.6-5.14-3.83-6.76-6.69s-2.43-6.17-2.43-9.93Zm25-9.97c-1.73-1.65-3.98-2.47-6.76-2.47s-5.25.84-7.11,2.51c-1.85,1.67-2.96,3.93-3.32,6.76h20.25c-.31-2.88-1.33-5.15-3.05-6.8Z" style="stroke-width: 0px;"/>
      <path d="m312.38,1.24h7.81v19.63c2.47-3.45,6.21-5.18,11.21-5.18,3.3,0,6.17.76,8.62,2.28,2.45,1.52,4.35,3.65,5.72,6.38,1.36,2.73,2.05,5.93,2.05,9.58,0,4.07-.86,7.6-2.59,10.59-1.73,2.99-4.13,5.29-7.23,6.92-3.09,1.62-6.75,2.43-10.97,2.43-2.47,0-5.05-.25-7.73-.73-2.68-.49-4.97-1.09-6.88-1.82V1.24Zm27.44,33c0-3.5-.89-6.32-2.67-8.46-1.78-2.14-4.19-3.21-7.23-3.21-2.83,0-5.17.93-6.99,2.78-1.83,1.85-2.74,4.3-2.74,7.34v13.52c2.16.62,4.33.93,6.49.93,4.12,0,7.34-1.13,9.66-3.4,2.32-2.27,3.48-5.44,3.48-9.51Z" style="stroke-width: 0px;"/>
      <path d="m353.49,34.7c0-3.61.84-6.84,2.51-9.7,1.67-2.86,3.95-5.13,6.84-6.8,2.88-1.67,6.16-2.51,9.81-2.51s6.94.84,9.85,2.51c2.91,1.67,5.2,3.94,6.88,6.8,1.67,2.86,2.51,6.09,2.51,9.7s-.84,6.94-2.51,9.85c-1.67,2.91-3.97,5.19-6.88,6.84-2.91,1.65-6.2,2.47-9.85,2.47s-6.93-.83-9.81-2.47c-2.89-1.65-5.17-3.93-6.84-6.84-1.67-2.91-2.51-6.2-2.51-9.85Zm7.96.08c0,3.61,1.04,6.56,3.13,8.85,2.09,2.29,4.78,3.44,8.08,3.44,2.16,0,4.1-.53,5.8-1.58,1.7-1.05,3.04-2.51,4.02-4.37.98-1.85,1.47-3.97,1.47-6.34s-.48-4.55-1.43-6.38c-.95-1.83-2.28-3.27-3.98-4.33-1.7-1.06-3.63-1.58-5.8-1.58-3.3,0-6,1.15-8.12,3.44-2.11,2.29-3.17,5.24-3.17,8.85Z" style="stroke-width: 0px;"/>
      <path d="m399.4,16.85h7.26l.39,5.87c1.24-2.06,2.85-3.66,4.83-4.79,1.98-1.13,4.19-1.7,6.61-1.7,1.34,0,2.68.21,4.02.62l-1.47,7.11c-1.08-.36-2.22-.54-3.4-.54-2.99,0-5.47.98-7.46,2.94-1.98,1.96-2.98,4.53-2.98,7.73v18.7h-7.81V16.85Z" style="stroke-width: 0px;"/>
      <path d="m452.72,52.4v-4.41c-2.47,3.5-6.26,5.26-11.36,5.26-3.25,0-6.09-.75-8.54-2.24-2.45-1.49-4.35-3.58-5.72-6.26s-2.05-5.8-2.05-9.35c0-4.02.88-7.5,2.63-10.43,1.75-2.94,4.21-5.22,7.38-6.84,3.17-1.62,6.89-2.43,11.17-2.43,2.32,0,4.74.22,7.26.66,2.52.44,4.82,1.07,6.88,1.89v33.85c0,5.51-1.6,9.76-4.79,12.75-3.2,2.99-7.78,4.48-13.76,4.48s-10.85-1.52-14.76-4.56l3.4-5.72c3.45,2.47,7.19,3.71,11.21,3.71,7.37,0,11.05-3.45,11.05-10.36Zm-.16-16v-13.06c-2.22-.57-4.28-.85-6.18-.85-4.22,0-7.51,1.12-9.85,3.36-2.34,2.24-3.52,5.35-3.52,9.31,0,3.45.9,6.22,2.71,8.31,1.8,2.09,4.2,3.13,7.19,3.13s5.22-.95,6.99-2.86c1.78-1.91,2.67-4.35,2.67-7.34Z" style="stroke-width: 0px;"/>
    </g>
  </g>
</svg>