<?xml version="1.0" encoding="UTF-8"?>
<svg id="Layer_2" data-name="Layer 2" xmlns="http://www.w3.org/2000/svg" viewBox="0 0 398.34 108.35">
  <g id="Layer_2-2" data-name="Layer 2">
    <path d="m65.55,18.56c1.15,0,2.26.2,3.29.57-.08-.69-.13-1.39-.13-2.11,0-9.4,7.62-17.03,17.03-17.03,5.25,0,9.95,2.38,13.08,6.12,1.28-1.24,3.03-2.01,4.96-2.01,3.94,0,7.13,3.19,7.13,7.13,0,.05,0,.11,0,.16,1.68.46,3.13,1.51,4.09,2.92,2.63-5.74,8.42-9.73,15.15-9.73,8.7,0,15.85,6.68,16.58,15.19,3.7,1.22,6.38,4.7,6.38,8.82,0,1.03-.17,2.02-.48,2.95h4.02c1.74,0,3.17,1.42,3.17,3.17h0c0,1.74-1.43,3.17-3.17,3.17H48.75c-1.74,0-3.17-1.43-3.17-3.17h0c0-1.74,1.42-3.17,3.17-3.17h7.73c-.38-1.04-.59-2.16-.59-3.33,0-5.34,4.33-9.66,9.66-9.66Z" style="fill: #d7e5f5; fill-rule: evenodd; stroke-width: 0px;"/>
    <path d="m139.09,41.47h-3.23c-.99,0-1.79-.81-1.79-1.79s.61-1.79,1.79-1.79h2.71c.21-.65.32-1.35.32-2.08,0-3.03-1.97-5.59-4.7-6.49-.54-6.27-5.8-11.19-12.21-11.19-4.95,0-9.22,2.94-11.15,7.17-.71-1.04-1.77-1.81-3.01-2.15,0-.04,0-.08,0-.12,0-2.9-2.35-5.25-5.25-5.25-1.42,0-2.7.56-3.65,1.48-2.3-2.75-5.76-4.51-9.63-4.51-6.92,0-12.54,5.61-12.54,12.54,0,.53.03,1.04.1,1.55-.76-.27-1.57-.42-2.42-.42-3.93,0-7.11,3.18-7.11,7.11,0,.83.14,1.62.4,2.36h15.31c.99,0,1.79.81,1.79,1.79s-.83,1.79-1.79,1.79h-4.96c-1.88,0-3.41,1.54-3.41,3.41h0c0,1.88,1.54,3.41,3.41,3.41h61c1.88,0,3.41-1.54,3.41-3.41h0c0-1.88-1.54-3.41-3.41-3.41h0Zm-72.03,0c1.88,0,3.41,1.54,3.41,3.41h0c0,1.88-1.54,3.41-3.41,3.41h-.09c-1.88,0-3.41-1.54-3.41-3.41h0c0-1.88,1.54-3.41,3.41-3.41h.09Z" style="fill: #74daff; fill-rule: evenodd; stroke-width: 0px;"/>
    <g>
      <path d="m38,87.43l5.15-34.12h10.85l-9.66,54.3h-11l-6.34-32-6.27,32h-11.04L0,53.31h10.93l5.11,34.09,6.38-34.09h9.21l6.38,34.12Z" style="stroke-width: 0px;"/>
      <path d="m74.55,108.35c-5.42,0-9.65-1.62-12.68-4.85-3.03-3.23-4.55-7.86-4.55-13.87v-3.21c0-6.36,1.39-11.27,4.18-14.73,2.78-3.46,6.77-5.18,11.97-5.18s8.89,1.62,11.45,4.86c2.56,3.24,3.87,8.04,3.92,14.39v5.18h-21c.15,3,.81,5.19,1.98,6.57,1.17,1.39,2.97,2.08,5.41,2.08,3.53,0,6.48-1.21,8.84-3.62l4.14,6.38c-1.29,1.79-3.17,3.24-5.63,4.34-2.46,1.11-5.13,1.66-8.02,1.66Zm-6.64-24.76h10.55v-.97c-.05-2.41-.45-4.24-1.19-5.48-.75-1.24-2.04-1.86-3.88-1.86s-3.18.66-4.01,1.98c-.83,1.32-1.32,3.43-1.47,6.34Z" style="stroke-width: 0px;"/>
      <path d="m113.97,107.61c-.3-.62-.6-1.67-.9-3.13-1.89,2.59-4.45,3.88-7.68,3.88s-6.19-1.12-8.41-3.36c-2.23-2.24-3.34-5.13-3.34-8.69,0-4.23,1.35-7.5,4.05-9.81,2.7-2.31,6.58-3.49,11.65-3.54h3.21v-3.24c0-1.81-.31-3.1-.93-3.84-.62-.75-1.53-1.12-2.72-1.12-2.64,0-3.95,1.54-3.95,4.62h-10.55c0-3.73,1.4-6.81,4.2-9.23,2.8-2.42,6.33-3.64,10.61-3.64s7.85,1.15,10.27,3.45c2.42,2.3,3.64,5.59,3.64,9.86v18.98c.05,3.48.55,6.2,1.49,8.17v.63h-10.63Zm-6.23-7.53c1.17,0,2.16-.24,2.98-.71.82-.47,1.43-1.03,1.83-1.68v-8.39h-2.54c-1.79,0-3.2.57-4.23,1.72-1.03,1.14-1.55,2.67-1.55,4.59,0,2.98,1.17,4.48,3.51,4.48Z" style="stroke-width: 0px;"/>
      <path d="m143.02,57.33v9.92h5.41v7.91h-5.41v20.06c0,1.59.22,2.69.65,3.29.43.6,1.27.9,2.52.9,1.02,0,1.85-.09,2.5-.26l-.07,8.21c-1.79.67-3.73,1.01-5.82,1.01-6.81,0-10.26-3.91-10.33-11.72v-21.47h-4.66v-7.91h4.66v-9.92h10.55Z" style="stroke-width: 0px;"/>
      <path d="m164.51,70.8c2.29-2.86,5.1-4.29,8.43-4.29,3.68,0,6.48,1.29,8.39,3.88,1.91,2.59,2.88,6.44,2.91,11.56v25.66h-10.59v-25.55c0-2.36-.37-4.07-1.1-5.13-.73-1.06-1.92-1.58-3.56-1.58-1.91,0-3.41.88-4.48,2.65v29.61h-10.55v-57.28h10.55v20.47Z" style="stroke-width: 0px;"/>
      <path d="m208.1,108.35c-5.42,0-9.65-1.62-12.68-4.85-3.03-3.23-4.55-7.86-4.55-13.87v-3.21c0-6.36,1.39-11.27,4.18-14.73,2.78-3.46,6.77-5.18,11.97-5.18s8.89,1.62,11.45,4.86c2.56,3.24,3.87,8.04,3.92,14.39v5.18h-21c.15,3,.81,5.19,1.98,6.57,1.17,1.39,2.97,2.08,5.41,2.08,3.53,0,6.48-1.21,8.84-3.62l4.14,6.38c-1.29,1.79-3.17,3.24-5.63,4.34-2.46,1.11-5.13,1.66-8.02,1.66Zm-6.64-24.76h10.55v-.97c-.05-2.41-.45-4.24-1.19-5.48-.75-1.24-2.04-1.86-3.88-1.86s-3.18.66-4.01,1.98c-.83,1.32-1.32,3.43-1.47,6.34Z" style="stroke-width: 0px;"/>
      <path d="m248.27,77.44l-3.51-.3c-2.88,0-4.84,1.27-5.86,3.8v26.67h-10.59v-40.35h9.96l.3,4.36c1.67-3.41,3.96-5.11,6.9-5.11,1.19,0,2.16.16,2.91.48l-.11,10.44Z" style="stroke-width: 0px;"/>
      <path d="m292.17,107.61h-10.96l-16.04-35.62v35.62h-10.96v-54.3h10.96l16.07,35.65v-35.65h10.93v54.3Z" style="fill: #74daff; stroke-width: 0px;"/>
      <path d="m339.2,85.34c0,7.29-1.72,12.94-5.17,16.97s-8.22,6.04-14.34,6.04-10.88-2-14.36-5.99c-3.48-3.99-5.25-9.58-5.3-16.76v-9.29c0-7.46,1.73-13.28,5.18-17.47,3.46-4.19,8.25-6.28,14.4-6.28s10.8,2.06,14.28,6.17c3.48,4.12,5.25,9.89,5.3,17.32v9.29Zm-11-9.1c0-4.9-.7-8.54-2.09-10.93-1.39-2.39-3.56-3.58-6.49-3.58s-5.06,1.15-6.45,3.45c-1.39,2.3-2.11,5.8-2.16,10.5v9.66c0,4.75.71,8.25,2.13,10.5,1.42,2.25,3.6,3.38,6.56,3.38s4.99-1.1,6.38-3.3c1.39-2.2,2.1-5.61,2.13-10.24v-9.44Z" style="fill: #74daff; stroke-width: 0px;"/>
      <path d="m382.35,87.43l5.15-34.12h10.85l-9.66,54.3h-11l-6.34-32-6.27,32h-11.04l-9.7-54.3h10.93l5.11,34.09,6.38-34.09h9.21l6.38,34.12Z" style="fill: #74daff; stroke-width: 0px;"/>
    </g>
  </g>
</svg>