<?xml version="1.0" encoding="UTF-8"?>
<svg id="Layer_2" data-name="Layer 2" xmlns="http://www.w3.org/2000/svg" viewBox="0 0 488.1 78">
  <g id="Layer_1-2" data-name="Layer 1">
    <g>
      <path d="m112.71,4l-8.9,5.4-25.7,68.6h-5.2l-15.5-47.8-18,47.8h-5.2L7.9,9.4,0,4h41.9l-10.4,5.4,15.6,42.9,7.8-29.7-5.3-16.2,21.8-3.9,14.9,48.8,9.9-41.9-11.9-5.4h28.4Z" style="stroke-width: 0px;"/>
      <path d="m147.1,67c-4.2,6.4-10.9,10-20.2,10-14.1,0-25.7-9.8-25.7-25.3,0-14.6,9.8-26.7,25.8-26.7,9.4,0,15.9,5.5,15.9,12.8,0,8.3-6.4,15.6-18.4,20.1,5.7,5.6,12.9,9.3,19.6,9.3,1,0,2-.1,2.9-.3l.1.1Zm-33.5-32.6c0,8.3,4.3,16.7,10.3,22.9,2.8-3.6,3.9-7.6,3.9-12.7,0-8.7-5.8-16.1-10.1-16.1-2.6,0-4.1,2.2-4.1,5.9Z" style="stroke-width: 0px;"/>
      <path d="m195.5,67c-4.2,6.4-10.9,10-20.2,10-14.1,0-25.7-9.8-25.7-25.3,0-14.6,9.8-26.7,25.8-26.7,9.4,0,15.9,5.5,15.9,12.8,0,8.3-6.4,15.6-18.4,20.1,5.7,5.6,12.9,9.3,19.6,9.3,1,0,2-.1,2.9-.3l.1.1Zm-33.5-32.6c0,8.3,4.3,16.7,10.3,22.9,2.8-3.6,3.9-7.6,3.9-12.7,0-8.7-5.8-16.1-10.1-16.1-2.6,0-4.1,2.2-4.1,5.9Z" style="stroke-width: 0px;"/>
      <path d="m263.21,74.4v1.6h-24.9l-14.9-23.3v21.7h3v1.6h-28v-1.6h5V14.9l-5.7-4.9,25.7-9v50.1l7.6-5.5c4.9-3.6,7.3-6,7.3-10.5,0-2.6-1.1-5.5-4.3-7.1v-.5h20c.6.8.8,1.5.8,2.5,0,4-4.7,6.9-11.3,9.8l-6.1,2.7,21.7,31.9h4.1Z" style="stroke-width: 0px;"/>
      <path d="m342.41,39.1c0,23.7-16.5,36.9-42.9,36.9h-33.1v-1.6h8V9.4l-8.9-5.4h35.3c26.3,0,41.6,12.3,41.6,35.1Zm-23,.1c0-21.9-7.4-33.6-20.5-33.6h-2.5v68.8h1.6c12.9,0,21.4-13,21.4-35.2Z" style="stroke-width: 0px;"/>
      <path d="m347.3,74.4h5v-36.5l-5.7-4.9,25.7-9v50.4h5v1.6h-30v-1.6Zm3.9-63.3c0-6.6,4-11.1,11.1-11.1s11.1,4.5,11.1,11.1-4,11.2-11.1,11.2-11.1-4.5-11.1-11.2Z" style="stroke-width: 0px;"/>
      <path d="m381.6,74.4l3.1-16.3h.1l12.4,16.6c1.4.4,2.1.5,3.3.5,4.4,0,7.4-2.3,7.4-6.4,0-3-1.8-4.7-6-6.9l-6.6-3.5c-8.3-4.4-12.3-9.1-12.3-16.7,0-10.1,8.2-16.7,21.5-16.7,6.5,0,11.7,1.1,16.6,2.9l-3.9,15.8h-.1l-11.6-16.5c-.5-.2-1.2-.3-1.7-.3-4.4,0-6.6,2.5-6.6,5.3,0,3.5,1.6,6,7.5,9.1l7.5,4c6.9,3.7,10.5,8.7,10.5,14.9,0,10.4-10.5,16.8-22.8,16.8-4.7,0-11.3-.5-18.3-2.6Z" style="stroke-width: 0px;"/>
      <path d="m488.1,74.4v1.6h-29v-1.6h4v-30.1c0-7.8-1.9-10.4-6-10.4-2,0-4,.6-6,1.5v39h4v1.6h-29v-1.6h5V14.9l-5.7-4.9,25.7-9v33c6.5-5.6,12.3-9.5,19.1-9.5,8.5,0,12.9,5.3,12.9,15.5v34.4h5Z" style="stroke-width: 0px;"/>
    </g>
  </g>
</svg>