<?xml version="1.0" encoding="UTF-8"?>
<svg id="Layer_2" data-name="Layer 2" xmlns="http://www.w3.org/2000/svg" viewBox="0 0 264.24 264.24">
  <g id="Layer_1-2" data-name="Layer 1">
    <circle cx="132.12" cy="132.12" r="132.12" style="fill: #2c578a; stroke-width: 0px;"/>
    <g>
      <path d="m63.94,215.81c-11.95,0-20.94-3.05-26.98-9.16-6.04-6.11-8.45-15.27-7.23-27.49l2.04-24.64c.41-4.07-.07-6.99-1.42-8.76-1.36-1.76-4.01-2.65-7.94-2.65h-2.46c-1.68,0-3.04-1.36-3.04-3.04v-16.52c0-1.68,1.36-3.04,3.04-3.04h2.46c3.94,0,6.58-.88,7.94-2.65,1.36-1.76,1.83-4.75,1.42-8.96l-2.24-24.03c-1.09-11.94,1.39-21,7.43-27.18,6.04-6.18,15.03-9.26,26.98-9.26h9.38c1.68,0,3.04,1.36,3.04,3.04v16.73c0,1.68-1.36,3.04-3.04,3.04h-4.7c-5.7,0-9.47,1.19-11.3,3.56-1.83,2.38-2.54,5.8-2.14,10.28l1.83,20.36c.54,5.7.27,10.52-.82,14.46-1.09,3.94-3.33,7.2-6.72,9.77-2.69,2.05-6.41,3.75-11.15,5.11-1.96.56-3.92-.87-3.92-2.91h0c0-1.98,1.86-3.46,3.77-2.95,4.81,1.27,8.57,2.91,11.29,4.92,3.39,2.51,5.63,5.77,6.72,9.77,1.09,4.01,1.36,8.86.82,14.56l-1.83,20.77c-.41,4.62.31,8.11,2.14,10.49,1.83,2.38,5.6,3.56,11.3,3.56h4.7c1.68,0,3.04,1.36,3.04,3.04v16.73c0,1.68-1.36,3.04-3.04,3.04h-9.38Z" style="fill: #fff; stroke-width: 0px;"/>
      <path d="m200.3,215.81c11.95,0,20.94-3.05,26.98-9.16,6.04-6.11,8.45-15.27,7.23-27.49l-2.04-24.64c-.41-4.07.07-6.99,1.42-8.76,1.36-1.76,4.01-2.65,7.94-2.65h2.46c1.68,0,3.04-1.36,3.04-3.04v-16.52c0-1.68-1.36-3.04-3.04-3.04h-2.46c-3.94,0-6.58-.88-7.94-2.65-1.36-1.76-1.83-4.75-1.42-8.96l2.24-24.03c1.09-11.94-1.39-21-7.43-27.18-6.04-6.18-15.03-9.26-26.98-9.26h-9.38c-1.68,0-3.04,1.36-3.04,3.04v16.73c0,1.68,1.36,3.04,3.04,3.04h4.7c5.7,0,9.47,1.19,11.3,3.56,1.83,2.38,2.54,5.8,2.14,10.28l-1.83,20.36c-.54,5.7-.27,10.52.82,14.46,1.09,3.94,3.33,7.2,6.72,9.77,2.69,2.05,6.41,3.75,11.15,5.11,1.96.56,3.92-.87,3.92-2.91h0c0-1.98-1.86-3.46-3.77-2.95-4.81,1.27-8.57,2.91-11.29,4.92-3.39,2.51-5.63,5.77-6.72,9.77-1.09,4.01-1.36,8.86-.82,14.56l1.83,20.77c.41,4.62-.31,8.11-2.14,10.49-1.83,2.38-5.6,3.56-11.3,3.56h-4.7c-1.68,0-3.04,1.36-3.04,3.04v16.73c0,1.68,1.36,3.04,3.04,3.04h9.38Z" style="fill: #fff; stroke-width: 0px;"/>
      <path d="m137.66,199.58c-10.02,0-19.34-1.68-27.96-5.04-8.62-3.36-16.16-8.09-22.64-14.21-6.48-6.11-11.52-13.29-15.12-21.54-3.61-8.25-5.41-17.2-5.41-26.86s1.8-18.76,5.41-26.95c3.6-8.19,8.62-15.28,15.03-21.27,6.42-5.99,13.9-10.66,22.46-14.02,8.55-3.36,17.84-5.04,27.87-5.04s19.43,1.59,27.86,4.77c8.43,3.18,15.77,7.58,22,13.2l-24.38,24.57c-2.93-3.18-6.51-5.68-10.72-7.52-4.22-1.83-9.14-2.75-14.76-2.75-4.89,0-9.38.8-13.47,2.38-4.1,1.59-7.61,3.91-10.54,6.97-2.93,3.06-5.22,6.75-6.87,11.09-1.65,4.34-2.48,9.2-2.48,14.57s.83,10.42,2.48,14.76c1.65,4.34,3.94,8.04,6.87,11.09,2.93,3.06,6.44,5.41,10.54,7.06,4.09,1.65,8.58,2.48,13.47,2.48,5.5,0,10.42-.85,14.76-2.57,4.34-1.71,8.09-4.22,11.27-7.52l24.57,24.57c-6.48,5.62-13.75,9.99-21.82,13.11-8.07,3.12-17.54,4.67-28.42,4.67Z" style="fill: #fff; stroke-width: 0px;"/>
    </g>
  </g>
</svg>