<?xml version="1.0" encoding="UTF-8"?>
<svg id="Layer_2" data-name="Layer 2" xmlns="http://www.w3.org/2000/svg" viewBox="0 0 410.38 76.2">
  <g id="Layer_1-2" data-name="Layer 1">
    <path d="m21.32,76.2c-5.41,0-9.49-1.38-12.23-4.15-2.74-2.77-3.83-6.92-3.28-12.46l.92-11.17c.18-1.85-.03-3.17-.65-3.97-.62-.8-1.82-1.2-3.6-1.2h-1.11c-.76,0-1.38-.62-1.38-1.38v-7.49c0-.76.62-1.38,1.38-1.38h1.11c1.78,0,2.98-.4,3.6-1.2.61-.8.83-2.15.65-4.06l-1.01-10.89c-.49-5.41.63-9.52,3.37-12.32C11.83,1.74,15.9.34,21.32.34h4.25c.76,0,1.38.62,1.38,1.38v7.58c0,.76-.62,1.38-1.38,1.38h-2.13c-2.58,0-4.29.54-5.12,1.62-.83,1.08-1.15,2.63-.97,4.66l.83,9.23c.24,2.58.12,4.77-.37,6.55-.49,1.79-1.51,3.26-3.05,4.43-1.22.93-2.9,1.7-5.05,2.32-.89.26-1.78-.4-1.78-1.32h0c0-.9.84-1.57,1.71-1.34,2.18.58,3.89,1.32,5.12,2.23,1.54,1.14,2.55,2.62,3.05,4.43.49,1.82.61,4.01.37,6.6l-.83,9.41c-.18,2.09.14,3.68.97,4.75.83,1.08,2.54,1.62,5.12,1.62h2.13c.76,0,1.38.62,1.38,1.38v7.58c0,.76-.62,1.38-1.38,1.38h-4.25Z" style="fill: #2c578a; stroke-width: 0px;"/>
    <path d="m389.06,75.86c5.41,0,9.49-1.38,12.23-4.15,2.74-2.77,3.83-6.92,3.28-12.46l-.92-11.17c-.18-1.85.03-3.17.65-3.97.62-.8,1.82-1.2,3.6-1.2h1.11c.76,0,1.38-.62,1.38-1.38v-7.49c0-.76-.62-1.38-1.38-1.38h-1.11c-1.78,0-2.98-.4-3.6-1.2-.61-.8-.83-2.15-.65-4.06l1.01-10.89c.49-5.41-.63-9.52-3.37-12.32-2.74-2.8-6.81-4.2-12.23-4.2h-4.25c-.76,0-1.38.62-1.38,1.38v7.58c0,.76.62,1.38,1.38,1.38h2.13c2.58,0,4.29.54,5.12,1.62.83,1.08,1.15,2.63.97,4.66l-.83,9.23c-.24,2.58-.12,4.77.37,6.55.49,1.79,1.51,3.26,3.05,4.43,1.22.93,2.9,1.7,5.05,2.32.89.26,1.78-.4,1.78-1.32h0c0-.9-.84-1.57-1.71-1.34-2.18.58-3.89,1.32-5.12,2.23-1.54,1.14-2.55,2.62-3.05,4.43-.49,1.82-.61,4.01-.37,6.6l.83,9.41c.18,2.09-.14,3.68-.97,4.75-.83,1.08-2.54,1.62-5.12,1.62h-2.13c-.76,0-1.38.62-1.38,1.38v7.58c0,.76.62,1.38,1.38,1.38h4.25Z" style="fill: #2c578a; stroke-width: 0px;"/>
    <g>
      <path d="m53.93,64.36c-3.72,0-7.16-.65-10.34-1.94-3.18-1.29-5.95-3.12-8.33-5.47-2.38-2.35-4.22-5.09-5.54-8.22-1.32-3.13-1.98-6.5-1.98-10.13s.66-7,1.98-10.13c1.32-3.13,3.16-5.84,5.54-8.15,2.38-2.3,5.14-4.1,8.29-5.4,3.15-1.29,6.61-1.94,10.37-1.94,3.95,0,7.47.64,10.55,1.91,3.08,1.27,5.77,3.01,8.08,5.22l-7.48,7.55c-1.27-1.41-2.83-2.52-4.69-3.32-1.86-.8-4.01-1.2-6.46-1.2-2.16,0-4.14.36-5.93,1.09-1.79.73-3.34,1.78-4.66,3.14-1.32,1.36-2.33,3.01-3.03,4.94-.71,1.93-1.06,4.02-1.06,6.28s.35,4.48,1.06,6.39,1.72,3.55,3.03,4.94c1.32,1.39,2.87,2.45,4.66,3.18,1.79.73,3.76,1.09,5.93,1.09,2.54,0,4.75-.39,6.63-1.16,1.88-.78,3.48-1.89,4.8-3.35l7.55,7.55c-2.35,2.26-5.08,4.01-8.19,5.26s-6.7,1.87-10.8,1.87Z" style="fill: #fff; stroke-width: 0px;"/>
      <path d="m77.92,63.59V12.36h10.87v51.23h-10.87Zm22.72,0v-19.55c0-1.74-.56-3.16-1.69-4.27-1.13-1.1-2.54-1.66-4.23-1.66-1.13,0-2.14.25-3.03.74-.89.49-1.6,1.19-2.12,2.08-.52.89-.78,1.93-.78,3.1l-4.16-2.05c0-2.68.58-5.03,1.73-7.06,1.15-2.02,2.74-3.59,4.76-4.69,2.02-1.1,4.33-1.66,6.92-1.66s5.03.55,7.06,1.66c2.02,1.11,3.6,2.64,4.73,4.59,1.13,1.95,1.69,4.22,1.69,6.81v21.95h-10.87Z" style="fill: #fff; stroke-width: 0px;"/>
      <path d="m118.28,63.59V29.29h10.87v34.29h-10.87Zm10.87-18.77l-4.52-3.53c.89-4.05,2.41-7.17,4.55-9.39,2.14-2.21,5.07-3.32,8.79-3.32,1.65,0,3.09.25,4.34.74,1.25.49,2.34,1.23,3.28,2.22l-6.42,8.19c-.42-.47-.99-.85-1.69-1.13s-1.51-.42-2.4-.42c-1.83,0-3.28.55-4.34,1.66-1.06,1.11-1.59,2.76-1.59,4.97Z" style="fill: #fff; stroke-width: 0px;"/>
      <path d="m148.41,63.59V29.29h10.87v34.29h-10.87Z" style="fill: #fff; stroke-width: 0px;"/>
      <path d="m179.32,64.5c-2.02,0-4.02-.27-6-.81-1.98-.54-3.79-1.29-5.43-2.26-1.65-.96-3.08-2.08-4.3-3.35l6.21-6.21c1.18,1.22,2.53,2.18,4.06,2.86,1.53.68,3.23,1.02,5.12,1.02,1.18,0,2.1-.19,2.79-.56.68-.38,1.02-.92,1.02-1.62,0-.85-.4-1.47-1.2-1.87-.8-.4-1.85-.78-3.14-1.13-1.29-.35-2.65-.75-4.06-1.2-1.41-.45-2.75-1.05-4.02-1.8-1.27-.75-2.31-1.79-3.1-3.1-.8-1.32-1.2-3.03-1.2-5.15s.56-4.13,1.69-5.75c1.13-1.62,2.73-2.9,4.8-3.85,2.07-.94,4.54-1.41,7.41-1.41s5.55.51,8.04,1.52c2.49,1.01,4.49,2.5,6,4.48l-6.14,6.28c-1.08-1.27-2.29-2.18-3.63-2.72-1.34-.54-2.65-.81-3.92-.81s-2.14.19-2.75.56c-.61.38-.92.87-.92,1.48,0,.71.41,1.27,1.23,1.69.82.42,1.86.8,3.1,1.13,1.25.33,2.58.72,3.99,1.16,1.41.45,2.75,1.08,4.02,1.91,1.27.82,2.3,1.91,3.1,3.25.8,1.34,1.2,3.09,1.2,5.26,0,3.34-1.26,6.01-3.78,8.01-2.52,2-5.92,3-10.2,3Z" style="fill: #fff; stroke-width: 0px;"/>
      <path d="m196.26,38.54v-9.24h26.32v9.24h-26.32Zm7.69,25.05V15.11h10.87v48.48h-10.87Z" style="fill: #fff; stroke-width: 0px;"/>
      <path d="m243.11,64.36c-3.58,0-6.77-.8-9.6-2.4-2.82-1.6-5.06-3.76-6.7-6.49-1.65-2.73-2.47-5.79-2.47-9.17s.81-6.35,2.43-9.03c1.62-2.68,3.85-4.81,6.67-6.39,2.82-1.58,6.04-2.36,9.67-2.36s6.71.78,9.56,2.33c2.85,1.55,5.09,3.68,6.74,6.39,1.65,2.71,2.47,5.73,2.47,9.07s-.82,6.5-2.47,9.21c-1.65,2.71-3.88,4.86-6.7,6.46-2.82,1.6-6.02,2.4-9.6,2.4Zm0-9.88c1.51,0,2.85-.33,4.02-.99,1.18-.66,2.08-1.61,2.72-2.86.63-1.25.95-2.67.95-4.27s-.33-2.93-.99-4.13c-.66-1.2-1.56-2.14-2.72-2.82-1.15-.68-2.48-1.02-3.99-1.02s-2.85.34-4.02,1.02c-1.18.68-2.09,1.64-2.75,2.86-.66,1.22-.99,2.59-.99,4.09,0,1.6.33,3.02.99,4.27.66,1.25,1.58,2.2,2.75,2.86,1.17.66,2.52.99,4.02.99Z" style="fill: #fff; stroke-width: 0px;"/>
      <path d="m263.29,38.54v-9.24h50.03v9.24h-50.03Zm7.62,25.05V27.88c0-2.96.62-5.63,1.87-8.01,1.25-2.38,3.04-4.25,5.4-5.61,2.35-1.36,5.13-2.05,8.33-2.05s5.88.67,8.04,2.01c2.16,1.34,3.77,3.06,4.83,5.15,1.06,2.09,1.59,4.34,1.59,6.74l-8.33,1.06c.05-1.74-.41-3.1-1.38-4.09-.96-.99-2.32-1.48-4.06-1.48s-3.09.48-4.06,1.45-1.45,2.32-1.45,4.06v36.48h-10.8Zm21.73,0V26.47c0-2.82.62-5.36,1.87-7.62,1.25-2.26,3.01-4.05,5.29-5.36,2.28-1.32,4.95-1.98,8.01-1.98,2.35,0,4.41.4,6.17,1.2,1.76.8,3.3,1.86,4.62,3.18l-6.77,6.92c-.47-.47-.99-.83-1.55-1.09-.56-.26-1.25-.39-2.05-.39-1.51,0-2.68.42-3.53,1.27-.85.85-1.27,2-1.27,3.46v37.54h-10.8Z" style="fill: #fff; stroke-width: 0px;"/>
      <path d="m334.42,64.36c-3.72,0-7.01-.77-9.88-2.29-2.87-1.53-5.13-3.66-6.77-6.39-1.65-2.73-2.47-5.83-2.47-9.31s.8-6.43,2.4-9.14c1.6-2.7,3.79-4.83,6.56-6.39,2.77-1.55,5.9-2.33,9.38-2.33s6.44.73,9.03,2.19c2.59,1.46,4.63,3.48,6.14,6.07,1.51,2.59,2.26,5.55,2.26,8.89,0,.66-.04,1.33-.11,2.01-.07.68-.22,1.45-.46,2.29l-29.5.14v-7.48l24.84-.14-4.66,3.18c-.05-1.93-.35-3.54-.92-4.83-.56-1.29-1.4-2.29-2.5-3-1.11-.71-2.43-1.06-3.99-1.06-1.69,0-3.16.4-4.41,1.2-1.25.8-2.21,1.91-2.89,3.32-.68,1.41-1.02,3.1-1.02,5.08s.36,3.69,1.09,5.15c.73,1.46,1.76,2.58,3.1,3.35s2.93,1.16,4.76,1.16c1.65,0,3.15-.29,4.52-.88,1.36-.59,2.56-1.47,3.6-2.65l6,5.93c-1.69,2.02-3.74,3.52-6.14,4.48-2.4.96-5.06,1.45-7.97,1.45Z" style="fill: #fff; stroke-width: 0px;"/>
      <path d="m356.15,63.59V29.29h10.87v34.29h-10.87Zm10.87-18.77l-4.52-3.53c.89-4.05,2.41-7.17,4.55-9.39,2.14-2.21,5.07-3.32,8.79-3.32,1.65,0,3.09.25,4.34.74,1.25.49,2.34,1.23,3.28,2.22l-6.42,8.19c-.42-.47-.99-.85-1.69-1.13s-1.51-.42-2.4-.42c-1.83,0-3.28.55-4.34,1.66-1.06,1.11-1.59,2.76-1.59,4.97Z" style="fill: #fff; stroke-width: 0px;"/>
    </g>
    <circle cx="153.87" cy="18.29" r="6.34" style="fill: #2c578a; stroke-width: 0px;"/>
  </g>
</svg>