<svg width="116" height="116" viewBox="0 0 116 116" fill="none" xmlns="http://www.w3.org/2000/svg">
<path d="M62.0509 97.3675C65.6306 94.4947 98.8718 62.1687 99.2434 61.8153C100.712 60.3472 101.636 58.8247 101.89 57.429C102.152 55.979 101.708 54.7103 100.53 53.5322C99.4337 52.4356 98.0925 51.8556 96.6515 51.8556C94.8934 51.8556 93.09 52.6894 91.5856 54.2028L76.5147 68.6847C76.2518 68.9384 75.9075 69.0653 75.5722 69.0653C75.3053 69.0659 75.0441 68.9876 74.8216 68.8402C74.5991 68.6928 74.4251 68.483 74.3214 68.237C74.2178 67.991 74.1892 67.7199 74.2392 67.4577C74.2892 67.1955 74.4156 66.954 74.6025 66.7634L98.6634 41.914C101.074 39.5034 102.207 35.815 99.3431 32.9512C98.2465 31.8547 96.9053 31.2747 95.4643 31.2747C93.7062 31.2747 91.9028 32.1084 90.3984 33.6219L65.7847 57.6194C65.5218 57.8731 65.1775 58.009 64.8331 58.009C64.4887 58.009 64.1353 57.8731 63.8725 57.6103C63.3468 57.0847 63.3378 56.2328 63.8634 55.6981L93.4253 25.3931C94.7937 24.0247 95.6184 22.3844 95.7634 20.7894C95.8993 19.1672 95.3284 17.6628 94.105 16.4394C93.0084 15.3428 91.6672 14.7628 90.2262 14.7628C88.4681 14.7628 86.6647 15.5965 85.1603 17.1009L55.0093 46.4997C54.7465 46.7534 54.4022 46.8894 54.0578 46.8894C53.7134 46.8894 53.36 46.7534 53.0972 46.4906C52.5715 45.965 52.5625 45.1131 53.0881 44.5784L74.9831 22.0762C76.3606 20.6987 77.1853 19.0675 77.3212 17.4725C77.4572 15.8503 76.8862 14.3459 75.6628 13.1225C74.5662 12.0259 73.225 11.4459 71.784 11.4459C70.0259 11.4459 68.2225 12.2797 66.7181 13.7931C58.6887 21.6775 37.7271 42.2947 37.0203 43.0559C34.3287 44.9137 33.785 42.1044 33.649 40.2828C33.495 38.1622 35.9237 30.7581 34.51 24.0972C32.1356 15.2431 25.2934 16.6931 25.1393 16.7656C21.3875 18.5237 22.1034 21.1519 23.4356 26.4353L23.5715 27.4775C24.9672 34.3831 15.379 54.8462 14.6722 56.3778C10.9112 64.6065 6.57934 81.2906 20.9253 95.6365C36.6487 111.36 56.115 103.303 62.0509 97.3675Z" fill="url(#paint0_radial_1_37)"/>
<path d="M41.8778 106.194C51.5203 106.194 59.7219 101.582 62.9572 98.3825C65.8662 96.0081 84.2269 78.2819 99.18 63.7728C99.7872 63.1837 100.141 62.8484 100.177 62.8031C101.872 61.1084 102.923 59.3412 103.222 57.6737C103.566 55.7797 102.977 54.0669 101.491 52.5715C100.132 51.2122 98.4641 50.4962 96.6516 50.4962C94.5219 50.4962 92.3831 51.475 90.625 53.2422L75.5722 67.7059L99.6422 42.8565C102.415 40.0834 103.811 35.4887 100.304 31.9906C98.9444 30.6312 97.2769 29.9153 95.4644 29.9153C93.3347 29.9153 91.1959 30.894 89.4378 32.6612L64.8422 56.6406L94.395 26.3447C95.9719 24.7678 96.9416 22.8375 97.1137 20.9162C97.2859 18.8681 96.5791 16.9922 95.0656 15.4787C93.7062 14.1194 92.0387 13.4034 90.2262 13.4034C88.1056 13.4034 85.9669 14.3731 84.1997 16.1403L54.0578 45.53L75.9528 23.0278C77.5387 21.4419 78.5084 19.5115 78.6716 17.5903C78.8437 15.5512 78.1369 13.6753 76.6234 12.1619C75.2641 10.8025 73.5966 10.0865 71.7841 10.0865C69.6544 10.0865 67.5156 11.0653 65.7575 12.8325L59.2234 19.2397C47.5781 30.6584 37.845 40.2194 36.8028 41.2887C36.2953 41.6965 35.6337 41.8506 35.3528 41.7147C35.1716 41.624 34.9722 41.2072 35.0084 40.3281C35.0628 38.7875 35.2803 36.8753 35.5069 34.8544C35.96 30.7944 36.4312 26.5894 35.8422 23.8162C34.5553 19.004 32.0269 16.965 30.1419 16.0859C27.55 14.8897 25.0397 15.3065 24.5594 15.5331C19.8469 17.7444 20.7803 21.4419 22.0672 26.5712L22.0944 26.6981L22.2394 27.7584C23.1819 32.3984 18.3425 45.2219 13.5031 55.6709L13.4306 55.8159C10.1953 62.8847 4.36812 81.0187 19.9556 96.6062C27.1241 103.757 34.8816 106.194 41.8778 106.194ZM96.6516 53.215C97.7209 53.215 98.7359 53.659 99.5697 54.4928C100.431 55.3537 100.73 56.1875 100.548 57.1844C100.349 58.2809 99.5425 59.5859 98.2828 60.8547C98.2737 60.8637 97.9112 61.2172 97.2859 61.8153C76.0616 82.4144 63.2472 94.6578 61.1991 96.3072L61.0903 96.4069C56.0878 101.409 37.5006 110.291 21.8859 94.6759C7.50375 80.2937 12.9141 63.5009 15.9137 56.9397L15.9772 56.8037C19.0947 50.0794 26.1816 33.7669 24.9219 27.26L24.7134 25.9006C23.3178 20.3544 23.2362 19.1944 25.6016 18.0525C26.2994 17.9256 31.3019 17.3184 33.2141 24.4506C33.6944 26.7253 33.2322 30.885 32.8244 34.5553C32.5887 36.6306 32.3712 38.5972 32.3169 40.2375C32.2262 42.8203 33.4497 43.8081 34.1928 44.1706C35.7062 44.9047 37.5097 44.2794 38.6334 43.3369L38.7512 43.2281C39.3041 42.63 52.4537 29.734 61.1537 21.1972L67.6969 14.7719C69.9262 12.5334 72.7991 12.1619 74.7294 14.0922C75.6719 15.0347 76.0978 16.1403 75.9981 17.3637C75.8894 18.6415 75.2006 19.9737 74.0497 21.1247L52.1094 43.6269C51.6108 44.1396 51.3333 44.8276 51.3367 45.5428C51.3401 46.2579 51.6241 46.9432 52.1275 47.4512C53.1334 48.4572 54.9097 48.4753 55.9428 47.4784L86.1119 18.0706C88.3412 15.8412 91.2231 15.4697 93.1444 17.4C94.0869 18.3425 94.5128 19.4481 94.4131 20.6715C94.2953 21.9494 93.6066 23.2906 92.4647 24.4234L62.8937 54.7465C61.8516 55.7978 61.8606 57.5197 62.9119 58.5709C63.9178 59.5769 65.6941 59.595 66.7272 58.5981L91.35 34.5915C93.5794 32.344 96.4612 31.9815 98.3825 33.9119C100.73 36.259 99.4791 39.1681 97.7028 40.9534L73.6237 65.8209C73.1266 66.3313 72.8507 67.0171 72.8558 67.7296C72.8608 68.4421 73.1465 69.1239 73.6509 69.6272C74.6659 70.6422 76.4241 70.6512 77.4572 69.6634L92.5281 55.1815C93.7969 53.9037 95.2559 53.215 96.6516 53.215Z" fill="#EDA600"/>
<path d="M39.1862 42.1769C44.1615 52.3359 43.5181 66.555 36.0506 77.9647C35.2078 79.5053 33.7668 78.7531 34.5009 77.1672C43.5181 57.8731 34.0659 43.9713 34.0659 43.9713L39.1862 42.1769Z" fill="#EDA600"/>
<path d="M58.7522 4.07818C56.0153 3.36225 53.0972 3.42568 50.2606 4.08725C47.4422 4.76693 44.6238 6.19881 42.5303 8.53693C40.4822 10.8569 39.2225 13.6754 38.7966 16.6297C38.3978 19.5569 38.7694 22.5747 40.1559 25.076C40.3191 22.2666 40.8084 19.6838 41.6331 17.3004C42.0591 16.1132 42.5575 14.9804 43.1647 13.911C43.7628 12.8507 44.4697 11.7994 45.2219 10.9385C46.7534 9.17131 48.8288 7.79381 51.1578 6.72443C53.4959 5.61881 56.0425 4.80318 58.7522 4.07818Z" fill="#B0BEC5"/>
<path d="M58 12.6695C56.4866 11.7089 54.5925 11.5095 52.8072 11.8267C51.0037 12.1439 49.2819 13.0411 47.9225 14.2826C46.5722 15.5423 45.6116 17.1282 45.0134 18.7776C44.7234 19.6023 44.5784 20.4723 44.4425 21.3151C44.3972 22.1851 44.3972 23.0551 44.5331 23.9251C45.1584 23.2636 45.6478 22.602 46.11 21.9586C46.6447 21.3514 47.0616 20.7079 47.5419 20.1189C48.4844 18.9498 49.3997 17.8895 50.3875 16.947C51.4025 16.0317 52.4719 15.2251 53.7134 14.5273C54.9459 13.8114 56.3325 13.2132 58 12.6695Z" fill="#90A4AE"/>
<path d="M109.81 70.0894C108.532 72.5906 107.2 74.9106 105.65 76.9587C104.11 79.0069 102.342 80.7469 100.285 81.8797C99.2883 82.4325 98.1011 82.9128 96.9411 83.2753C95.772 83.6469 94.5576 83.9006 93.307 84.0728C90.8058 84.3809 88.1776 84.3265 85.3955 83.9006C87.5523 85.7765 90.4342 86.7734 93.3705 86.9909C96.343 87.1903 99.3608 86.5469 102.061 85.0244C104.78 83.4747 106.774 81.0097 108.025 78.3906C109.275 75.7534 109.946 72.9169 109.81 70.0894Z" fill="#B0BEC5"/>
<path d="M101.246 69.0291C100.367 70.5516 99.4967 71.775 98.5452 72.8444C97.6027 73.9137 96.5877 74.7928 95.4821 75.5903C94.3583 76.3606 93.1258 77.0403 91.7846 77.72C91.1139 78.0644 90.398 78.3362 89.6911 78.735C88.9571 79.0522 88.2139 79.3875 87.4346 79.8678C88.2592 80.1759 89.1021 80.3572 89.963 80.4931C90.8149 80.5294 91.6939 80.5747 92.5639 80.4569C94.3039 80.2212 96.0439 79.6141 97.5664 78.5537C99.0617 77.4753 100.303 75.98 100.983 74.2853C101.672 72.5997 101.871 70.7147 101.246 69.0291Z" fill="#90A4AE"/>
<defs>
<radialGradient id="paint0_radial_1_37" cx="0" cy="0" r="1" gradientUnits="userSpaceOnUse" gradientTransform="translate(76.0828 34.438) rotate(-135) scale(82.476)">
<stop offset="0.353" stop-color="#FFCA28"/>
<stop offset="0.872" stop-color="#FFB300"/>
</radialGradient>
</defs>
</svg>
